<mxfile host="app.diagrams.net" modified="2024-01-02T06:54:33.374Z" agent="Mozilla/5.0 (Windows NT 10.0; Win64; x64) AppleWebKit/537.36 (KHTML, like Gecko) Chrome/120.0.0.0 Safari/537.36 Edg/120.0.0.0" version="22.1.16" etag="agWMxuVHSo7lJtMbBZUF" type="github">
  <diagram name="Page-1" id="zDnvRnQia_QgJ2DlU8ii">
    <mxGraphModel>
      <root>
        <mxCell id="0" />
        <mxCell id="1" parent="0" />
      </root>
    </mxGraphModel>
  </diagram>
</mxfile>
